<mxfile host="app.diagrams.net" modified="2023-12-27T04:01:39.316Z" agent="Mozilla/5.0 (Macintosh; Intel Mac OS X 10_15_7) AppleWebKit/537.36 (KHTML, like Gecko) Chrome/120.0.0.0 Safari/537.36" etag="poBf6uUJJgFQHXVYnAQd" version="22.1.12" type="github">
  <diagram name="Page-1" id="O8MPyl8DHrePYnAYMyPY">
    <mxGraphModel dx="1677" dy="1069" grid="1" gridSize="10" guides="1" tooltips="1" connect="1" arrows="1" fold="1" page="1" pageScale="1" pageWidth="850" pageHeight="1100" math="0" shadow="0">
      <root>
        <mxCell id="0" />
        <mxCell id="1" parent="0" />
        <mxCell id="wBnL4PggBmM-haMTPlV1-1" value="&lt;font style=&quot;font-size: 20px;&quot;&gt;Full Sync&lt;/font&gt;" style="text;html=1;strokeColor=none;fillColor=none;align=center;verticalAlign=middle;whiteSpace=wrap;rounded=0;" vertex="1" parent="1">
          <mxGeometry x="10" y="10" width="140" height="30" as="geometry" />
        </mxCell>
        <mxCell id="wBnL4PggBmM-haMTPlV1-4" value="&lt;font style=&quot;font-size: 20px;&quot;&gt;Incremental Sync&lt;/font&gt;" style="text;html=1;strokeColor=none;fillColor=none;align=center;verticalAlign=middle;whiteSpace=wrap;rounded=0;" vertex="1" parent="1">
          <mxGeometry x="10" y="360" width="210" height="30" as="geometry" />
        </mxCell>
        <mxCell id="wBnL4PggBmM-haMTPlV1-5" value="&lt;font style=&quot;font-size: 20px;&quot;&gt;Realtime Sync&lt;/font&gt;" style="text;html=1;strokeColor=none;fillColor=none;align=center;verticalAlign=middle;whiteSpace=wrap;rounded=0;" vertex="1" parent="1">
          <mxGeometry x="33" y="680" width="140" height="30" as="geometry" />
        </mxCell>
      </root>
    </mxGraphModel>
  </diagram>
</mxfile>
